<svg width="36" height="36" viewBox="0 0 36 36" fill="none" xmlns="http://www.w3.org/2000/svg">
<path fill-rule="evenodd" clip-rule="evenodd" d="M4 36H32C34.2091 36 36 34.2091 36 32V4C36 1.79086 34.2091 0 32 0H4C1.79086 0 0 1.79086 0 4V32C0 34.2091 1.79086 36 4 36Z" fill="#263238"/>
<g clip-path="url(#clip0_312_468)">
<path d="M23.7584 19.7909C23.7116 19.7685 21.962 18.9069 21.651 18.795C21.5241 18.7494 21.3881 18.7049 21.2435 18.7049C21.0073 18.7049 20.8088 18.8227 20.6542 19.0539C20.4794 19.3137 19.9503 19.9322 19.7868 20.117C19.7655 20.1413 19.7363 20.1705 19.7189 20.1705C19.7032 20.1705 19.4324 20.059 19.3505 20.0234C17.4736 19.2081 16.0489 17.2475 15.8536 16.9169C15.8257 16.8693 15.8245 16.8477 15.8243 16.8477C15.8311 16.8226 15.8942 16.7593 15.9268 16.7266C16.0221 16.6324 16.1254 16.5081 16.2253 16.3878C16.2726 16.3309 16.3199 16.2738 16.3664 16.2201C16.5114 16.0515 16.5759 15.9205 16.6507 15.7689L16.6899 15.6901C16.8726 15.3272 16.7166 15.021 16.6661 14.9221C16.6248 14.8394 15.886 13.0564 15.8074 12.869C15.6186 12.417 15.369 12.2065 15.0221 12.2065C14.99 12.2065 15.0221 12.2065 14.8872 12.2122C14.7228 12.2192 13.8279 12.337 13.4322 12.5864C13.0126 12.851 12.3027 13.6942 12.3027 15.1772C12.3027 16.512 13.1497 17.7722 13.5134 18.2515C13.5224 18.2636 13.539 18.2881 13.5631 18.3233C14.9558 20.3573 16.692 21.8646 18.452 22.5677C20.1464 23.2445 20.9488 23.3227 21.405 23.3227H21.405C21.5967 23.3227 21.7502 23.3077 21.8855 23.2944L21.9714 23.2862C22.5567 23.2343 23.8431 22.5678 24.1357 21.7546C24.3662 21.1142 24.4269 20.4145 24.2736 20.1605C24.1686 19.9878 23.9875 19.901 23.7584 19.7909Z" fill="white"/>
<path d="M18.213 6C11.7131 6 6.42497 11.2484 6.42497 17.6995C6.42497 19.786 6.98336 21.8284 8.04115 23.6159L6.0165 29.5883C5.97879 29.6996 6.00684 29.8227 6.0892 29.9066C6.14866 29.9673 6.22931 30 6.31167 30C6.34323 30 6.37502 29.9952 6.40603 29.9854L12.6336 28.0064C14.3377 28.917 16.2638 29.3976 18.2131 29.3976C24.7124 29.3977 30 24.1498 30 17.6995C30 11.2484 24.7124 6 18.213 6ZM18.213 26.9606C16.3788 26.9606 14.6023 26.4309 13.0752 25.4289C13.0238 25.3951 12.9642 25.3778 12.9042 25.3778C12.8725 25.3778 12.8407 25.3826 12.8097 25.3925L9.69014 26.3841L10.6972 23.413C10.7298 23.3169 10.7135 23.2108 10.6535 23.1288C9.49058 21.5398 8.87585 19.6625 8.87585 17.6995C8.87585 12.5922 13.0645 8.43709 18.2129 8.43709C23.3608 8.43709 27.5489 12.5922 27.5489 17.6995C27.549 22.8061 23.3609 26.9606 18.213 26.9606Z" fill="white"/>
</g>
<defs>
<clipPath id="clip0_312_468">
<rect width="24" height="24" fill="white" transform="translate(6 6)"/>
</clipPath>
</defs>
</svg>
